<svg width="80" height="19" viewBox="0 0 80 19" fill="none" xmlns="http://www.w3.org/2000/svg">
<path d="M8.58984 16.9688L6.26953 13.5586L3.89062 16.9688C3.54688 17.4453 3.25391 17.7852 3.01172 17.9883C2.77734 18.1914 2.47656 18.293 2.10938 18.293C1.70312 18.293 1.35547 18.168 1.06641 17.918C0.785156 17.6602 0.644531 17.3672 0.644531 17.0391C0.644531 16.7031 0.863281 16.2227 1.30078 15.5977L4.19531 11.4492L1.62891 7.99219C1.18359 7.42188 0.960938 6.92578 0.960938 6.50391C0.960938 6.17578 1.09375 5.89063 1.35938 5.64844C1.625 5.40625 1.97266 5.28516 2.40234 5.28516C2.77734 5.28516 3.08594 5.39062 3.32812 5.60156C3.57812 5.8125 3.86719 6.14453 4.19531 6.59766L6.26953 9.43359L8.28516 6.59766C8.62109 6.12891 8.91016 5.79297 9.15234 5.58984C9.40234 5.38672 9.71094 5.28516 10.0781 5.28516C10.5 5.28516 10.8477 5.40625 11.1211 5.64844C11.4023 5.88281 11.543 6.16797 11.543 6.50391C11.543 6.74609 11.4844 6.98047 11.3672 7.20703C11.2578 7.42578 11.0859 7.6875 10.8516 7.99219L8.28516 11.4492L11.1797 15.5977C11.6328 16.2461 11.8594 16.7344 11.8594 17.0625C11.8594 17.3984 11.7188 17.6875 11.4375 17.9297C11.1562 18.1719 10.8086 18.293 10.3945 18.293C10.0273 18.293 9.71484 18.1875 9.45703 17.9766C9.20703 17.7656 8.91797 17.4297 8.58984 16.9688ZM14.3438 5.56641H14.6953V3.64453C14.6953 3.12891 14.707 2.72656 14.7305 2.4375C14.7617 2.14063 14.8398 1.88672 14.9648 1.67578C15.0898 1.45703 15.2695 1.28125 15.5039 1.14844C15.7383 1.00781 16 0.9375 16.2891 0.9375C16.6953 0.9375 17.0625 1.08984 17.3906 1.39453C17.6094 1.59766 17.7461 1.84766 17.8008 2.14453C17.8633 2.43359 17.8945 2.84766 17.8945 3.38672V5.56641H19.0664C19.5195 5.56641 19.8633 5.67578 20.0977 5.89453C20.3398 6.10547 20.4609 6.37891 20.4609 6.71484C20.4609 7.14453 20.2891 7.44531 19.9453 7.61719C19.6094 7.78906 19.125 7.875 18.4922 7.875H17.8945V13.7578C17.8945 14.2578 17.9102 14.6445 17.9414 14.918C17.9805 15.1836 18.0742 15.4023 18.2227 15.5742C18.3789 15.7383 18.6289 15.8203 18.9727 15.8203C19.1602 15.8203 19.4141 15.7891 19.7344 15.7266C20.0547 15.6562 20.3047 15.6211 20.4844 15.6211C20.7422 15.6211 20.9727 15.7266 21.1758 15.9375C21.3867 16.1406 21.4922 16.3945 21.4922 16.6992C21.4922 17.2148 21.2109 17.6094 20.6484 17.8828C20.0859 18.1562 19.2773 18.293 18.2227 18.293C17.2227 18.293 16.4648 18.125 15.9492 17.7891C15.4336 17.4531 15.0938 16.9883 14.9297 16.3945C14.7734 15.8008 14.6953 15.0078 14.6953 14.0156V7.875H14.2734C13.8125 7.875 13.4609 7.76562 13.2188 7.54688C12.9766 7.32812 12.8555 7.05078 12.8555 6.71484C12.8555 6.37891 12.9805 6.10547 13.2305 5.89453C13.4883 5.67578 13.8594 5.56641 14.3438 5.56641ZM25.8516 13.6758V16.3477C25.8516 16.9961 25.6992 17.4844 25.3945 17.8125C25.0898 18.1328 24.7031 18.293 24.2344 18.293C23.7734 18.293 23.3945 18.1289 23.0977 17.8008C22.8008 17.4727 22.6523 16.9883 22.6523 16.3477V7.44141C22.6523 6.00391 23.1719 5.28516 24.2109 5.28516C24.7422 5.28516 25.125 5.45312 25.3594 5.78906C25.5938 6.125 25.7227 6.62109 25.7461 7.27734C26.1289 6.62109 26.5195 6.125 26.918 5.78906C27.3242 5.45312 27.8633 5.28516 28.5352 5.28516C29.207 5.28516 29.8594 5.45312 30.4922 5.78906C31.125 6.125 31.4414 6.57031 31.4414 7.125C31.4414 7.51562 31.3047 7.83984 31.0312 8.09766C30.7656 8.34766 30.4766 8.47266 30.1641 8.47266C30.0469 8.47266 29.7617 8.40234 29.3086 8.26172C28.8633 8.11328 28.4688 8.03906 28.125 8.03906C27.6562 8.03906 27.2734 8.16406 26.9766 8.41406C26.6797 8.65625 26.4492 9.01953 26.2852 9.50391C26.1211 9.98828 26.0078 10.5664 25.9453 11.2383C25.8828 11.9023 25.8516 12.7148 25.8516 13.6758ZM41.5195 12.5742H35.2617C35.2695 13.3008 35.4141 13.9414 35.6953 14.4961C35.9844 15.0508 36.3633 15.4688 36.832 15.75C37.3086 16.0312 37.832 16.1719 38.4023 16.1719C38.7852 16.1719 39.1328 16.1289 39.4453 16.043C39.7656 15.9492 40.0742 15.8086 40.3711 15.6211C40.668 15.4258 40.9414 15.2188 41.1914 15C41.4414 14.7812 41.7656 14.4844 42.1641 14.1094C42.3281 13.9688 42.5625 13.8984 42.8672 13.8984C43.1953 13.8984 43.4609 13.9883 43.6641 14.168C43.8672 14.3477 43.9688 14.6016 43.9688 14.9297C43.9688 15.2188 43.8555 15.5586 43.6289 15.9492C43.4023 16.332 43.0586 16.7031 42.5977 17.0625C42.1445 17.4141 41.5703 17.707 40.875 17.9414C40.1875 18.1758 39.3945 18.293 38.4961 18.293C36.4414 18.293 34.8438 17.707 33.7031 16.5352C32.5625 15.3633 31.9922 13.7734 31.9922 11.7656C31.9922 10.8203 32.1328 9.94531 32.4141 9.14062C32.6953 8.32812 33.1055 7.63281 33.6445 7.05469C34.1836 6.47656 34.8477 6.03516 35.6367 5.73047C36.4258 5.41797 37.3008 5.26172 38.2617 5.26172C39.5117 5.26172 40.582 5.52734 41.4727 6.05859C42.3711 6.58203 43.043 7.26172 43.4883 8.09766C43.9336 8.93359 44.1562 9.78516 44.1562 10.6523C44.1562 11.457 43.9258 11.9805 43.4648 12.2227C43.0039 12.457 42.3555 12.5742 41.5195 12.5742ZM35.2617 10.7578H41.0625C40.9844 9.66406 40.6875 8.84766 40.1719 8.30859C39.6641 7.76172 38.9922 7.48828 38.1562 7.48828C37.3594 7.48828 36.7031 7.76562 36.1875 8.32031C35.6797 8.86719 35.3711 9.67969 35.2617 10.7578ZM57.5039 12.0234V16.2773C57.5039 16.9492 57.3516 17.4531 57.0469 17.7891C56.7422 18.125 56.3398 18.293 55.8398 18.293C55.3555 18.293 54.9609 18.125 54.6562 17.7891C54.3594 17.4531 54.2109 16.9492 54.2109 16.2773V11.1797C54.2109 10.375 54.1836 9.75 54.1289 9.30469C54.0742 8.85938 53.9258 8.49609 53.6836 8.21484C53.4414 7.92578 53.0586 7.78125 52.5352 7.78125C51.4883 7.78125 50.7969 8.14062 50.4609 8.85938C50.1328 9.57812 49.9688 10.6094 49.9688 11.9531V16.2773C49.9688 16.9414 49.8164 17.4453 49.5117 17.7891C49.2148 18.125 48.8203 18.293 48.3281 18.293C47.8438 18.293 47.4453 18.125 47.1328 17.7891C46.8281 17.4453 46.6758 16.9414 46.6758 16.2773V7.125C46.6758 6.52344 46.8125 6.06641 47.0859 5.75391C47.3672 5.44141 47.7344 5.28516 48.1875 5.28516C48.625 5.28516 48.9883 5.43359 49.2773 5.73047C49.5742 6.01953 49.7227 6.42188 49.7227 6.9375V7.24219C50.2773 6.57812 50.8711 6.08984 51.5039 5.77734C52.1367 5.46484 52.8398 5.30859 53.6133 5.30859C54.418 5.30859 55.1094 5.46875 55.6875 5.78906C56.2656 6.10938 56.7422 6.59375 57.1172 7.24219C57.6562 6.58594 58.2344 6.10156 58.8516 5.78906C59.4688 5.46875 60.1523 5.30859 60.9023 5.30859C61.7773 5.30859 62.5312 5.48047 63.1641 5.82422C63.7969 6.16797 64.2695 6.66016 64.582 7.30078C64.8555 7.87891 64.9922 8.78906 64.9922 10.0312V16.2773C64.9922 16.9492 64.8398 17.4531 64.5352 17.7891C64.2305 18.125 63.8281 18.293 63.3281 18.293C62.8438 18.293 62.4453 18.125 62.1328 17.7891C61.8281 17.4453 61.6758 16.9414 61.6758 16.2773V10.8984C61.6758 10.2109 61.6445 9.66016 61.582 9.24609C61.5273 8.83203 61.3711 8.48438 61.1133 8.20312C60.8555 7.92188 60.4648 7.78125 59.9414 7.78125C59.5195 7.78125 59.1172 7.90625 58.7344 8.15625C58.3594 8.40625 58.0664 8.74219 57.8555 9.16406C57.6211 9.70312 57.5039 10.6562 57.5039 12.0234ZM77.0273 12.5742H70.7695C70.7773 13.3008 70.9219 13.9414 71.2031 14.4961C71.4922 15.0508 71.8711 15.4688 72.3398 15.75C72.8164 16.0312 73.3398 16.1719 73.9102 16.1719C74.293 16.1719 74.6406 16.1289 74.9531 16.043C75.2734 15.9492 75.582 15.8086 75.8789 15.6211C76.1758 15.4258 76.4492 15.2188 76.6992 15C76.9492 14.7812 77.2734 14.4844 77.6719 14.1094C77.8359 13.9688 78.0703 13.8984 78.375 13.8984C78.7031 13.8984 78.9688 13.9883 79.1719 14.168C79.375 14.3477 79.4766 14.6016 79.4766 14.9297C79.4766 15.2188 79.3633 15.5586 79.1367 15.9492C78.9102 16.332 78.5664 16.7031 78.1055 17.0625C77.6523 17.4141 77.0781 17.707 76.3828 17.9414C75.6953 18.1758 74.9023 18.293 74.0039 18.293C71.9492 18.293 70.3516 17.707 69.2109 16.5352C68.0703 15.3633 67.5 13.7734 67.5 11.7656C67.5 10.8203 67.6406 9.94531 67.9219 9.14062C68.2031 8.32812 68.6133 7.63281 69.1523 7.05469C69.6914 6.47656 70.3555 6.03516 71.1445 5.73047C71.9336 5.41797 72.8086 5.26172 73.7695 5.26172C75.0195 5.26172 76.0898 5.52734 76.9805 6.05859C77.8789 6.58203 78.5508 7.26172 78.9961 8.09766C79.4414 8.93359 79.6641 9.78516 79.6641 10.6523C79.6641 11.457 79.4336 11.9805 78.9727 12.2227C78.5117 12.457 77.8633 12.5742 77.0273 12.5742ZM70.7695 10.7578H76.5703C76.4922 9.66406 76.1953 8.84766 75.6797 8.30859C75.1719 7.76172 74.5 7.48828 73.6641 7.48828C72.8672 7.48828 72.2109 7.76562 71.6953 8.32031C71.1875 8.86719 70.8789 9.67969 70.7695 10.7578Z" fill="#ffffff"/>
</svg>
